<svg height="512" viewBox="0 0 32 32" width="512" xmlns="http://www.w3.org/2000/svg"><g id="cycle_x2C__pdca_x2C__Plan-Do-Check-Act_x2C__Deming_Cycle_2_"><g><g><g><path d="m7.5 31.073c-3.584 0-6.5-2.916-6.5-6.5 0-1.731.674-3.36 1.897-4.587.195-.196.513-.195.708-.001.195.195.195.512.001.707-1.036 1.038-1.606 2.417-1.606 3.881 0 3.033 2.468 5.5 5.5 5.5s5.5-2.467 5.5-5.5-2.468-5.5-5.5-5.5c-.776 0-1.525.158-2.227.47-.253.111-.547-.001-.66-.254-.112-.252.002-.548.254-.66.83-.369 1.716-.556 2.633-.556 3.584 0 6.5 2.916 6.5 6.5s-2.916 6.5-6.5 6.5z" fill="#263238"/></g></g><g id="XMLID_185_"><g><path d="m24.5 31.073c-3.584 0-6.5-2.916-6.5-6.5s2.916-6.5 6.5-6.5c1.272 0 2.504.367 3.563 1.063.23.151.295.461.144.692-.152.231-.463.294-.692.144-.896-.588-1.938-.898-3.014-.898-3.032 0-5.5 2.467-5.5 5.5s2.468 5.5 5.5 5.5 5.5-2.467 5.5-5.5c0-.35-.033-.7-.099-1.042-.052-.271.126-.533.397-.585.267-.051.532.126.585.397.077.403.116.816.116 1.229 0 3.584-2.916 6.5-6.5 6.5z" fill="#263238"/></g></g><g id="XMLID_184_"><g><path d="m24.5 26.674c-.133 0-.26-.053-.354-.146l-2.667-2.667c-.195-.195-.195-.512 0-.707s.512-.195.707 0l2.313 2.313 4.979-4.98c.195-.195.512-.195.707 0s.195.512 0 .707l-5.333 5.334c-.092.093-.219.146-.352.146z" fill="#263238"/></g></g><g><g><path d="m7.5 29.073c-2.481 0-4.5-2.019-4.5-4.5 0-1.203.468-2.333 1.317-3.183.195-.195.512-.195.707 0s.195.512 0 .707c-.66.661-1.024 1.541-1.024 2.476 0 1.93 1.57 3.5 3.5 3.5s3.5-1.57 3.5-3.5-1.57-3.5-3.5-3.5c-.277 0-.554.032-.821.096-.266.064-.538-.103-.602-.371-.064-.269.102-.538.371-.602.343-.082.696-.123 1.052-.123 2.481 0 4.5 2.019 4.5 4.5s-2.019 4.5-4.5 4.5z" fill="#263238"/></g></g><g><g><path d="m7.5 27.073c-1.379 0-2.5-1.122-2.5-2.5 0-.671.26-1.299.73-1.771.195-.195.512-.195.707 0s.195.512 0 .707c-.282.283-.437.66-.437 1.064 0 .827.673 1.5 1.5 1.5s1.5-.673 1.5-1.5c0-.615-.365-1.161-.931-1.39-.256-.104-.379-.396-.274-.652.103-.255.396-.378.651-.275.944.384 1.554 1.293 1.554 2.317 0 1.379-1.121 2.5-2.5 2.5z" fill="#263238"/></g></g><g id="XMLID_183_"><g><path d="m7.5 25.073c-.128 0-.256-.049-.354-.146l-5-5c-.195-.195-.195-.512 0-.707s.512-.195.707 0l5 5c.195.195.195.512 0 .707-.097.097-.225.146-.353.146z" fill="#263238"/></g></g><g><g><path d="m25.27 14.07h-1.54c-.234 0-.438-.163-.488-.393l-.245-1.115c-.329-.1-.65-.234-.962-.399l-.966.618c-.198.126-.457.098-.623-.068l-1.09-1.091c-.167-.167-.194-.427-.066-.625l.623-.961c-.168-.308-.304-.629-.405-.962l-1.115-.246c-.23-.05-.393-.253-.393-.488v-1.54c0-.235.164-.438.394-.488l1.119-.244c.098-.332.23-.651.398-.957l-.621-.959c-.128-.197-.101-.457.064-.624l1.09-1.1c.167-.168.43-.196.627-.067l.962.623c.312-.17.634-.304.964-.401l.245-1.119c.05-.229.253-.393.488-.393h1.539c.235 0 .438.164.488.393l.245 1.119c.331.097.654.231.966.402l.962-.616c.199-.126.457-.099.623.068l1.09 1.09c.167.167.194.427.066.625l-.621.959c.166.302.301.622.403.956l1.115.245c.231.05.394.253.394.488v1.54c0 .235-.163.438-.393.488l-1.115.246c-.102.333-.237.655-.405.962l.623.961c.128.198.101.458-.066.625l-1.09 1.091c-.166.166-.424.194-.623.068l-.966-.618c-.312.165-.633.299-.962.399l-.245 1.115c-.051.23-.254.393-.488.393zm-1.137-1h.734l.225-1.018c.041-.187.186-.334.371-.379.435-.104.857-.28 1.26-.522.163-.098.367-.095.527.007l.881.563.52-.52-.57-.88c-.105-.163-.107-.373-.004-.538.244-.389.422-.81.527-1.25.045-.186.191-.331.379-.372l1.017-.223v-.736l-1.018-.224c-.187-.041-.334-.185-.379-.372-.106-.445-.283-.862-.524-1.237-.105-.165-.105-.377.001-.542l.57-.88-.52-.52-.88.565c-.164.104-.373.105-.535.002-.395-.248-.813-.421-1.241-.515-.191-.042-.34-.19-.382-.381l-.225-1.028h-.734l-.225 1.027c-.042.191-.19.34-.382.381-.429.094-.847.267-1.241.515-.164.105-.375.102-.537-.004l-.879-.569-.521.525.571.882c.106.165.106.377.001.542-.244.38-.417.794-.513 1.229-.042.19-.191.339-.382.38l-1.025.225v.735l1.018.224c.188.041.334.186.379.372.105.441.283.861.527 1.25.104.165.102.375-.004.538l-.57.88.52.52.881-.563c.16-.102.365-.105.527-.007.402.242.825.418 1.26.522.186.045.33.192.371.379z" fill="#263238"/></g></g><g><g><path d="m24.5 10.64c-1.693 0-3.07-1.377-3.07-3.069 0-1.693 1.377-3.07 3.07-3.07s3.07 1.377 3.07 3.07c0 1.692-1.377 3.069-3.07 3.069zm0-5.14c-1.142 0-2.07.929-2.07 2.07s.929 2.069 2.07 2.069 2.07-.928 2.07-2.069-.928-2.07-2.07-2.07z" fill="#263238"/></g></g><g><g><path d="m10.04 13.363c-.128 0-.256-.049-.354-.146-.195-.195-.195-.512 0-.707l2.477-2.476c-.799-.89-1.207-2.085-1.163-3.399.038-1.254-.429-2.434-1.313-3.319-.962-.962-2.29-1.43-3.643-1.292-1.356.141-2.571.892-3.335 2.062-.99 1.503-.95 3.503.099 4.977.934 1.328 2.437 2.046 4.023 1.921.504-.036 1.012.026 1.507.185.263.084.408.365.324.628s-.365.41-.629.324c-.373-.12-.755-.165-1.127-.14-1.965.153-3.778-.724-4.915-2.341-1.284-1.805-1.333-4.258-.119-6.102.93-1.422 2.412-2.336 4.068-2.508 1.658-.172 3.277.405 4.453 1.58 1.083 1.081 1.653 2.522 1.607 4.057-.038 1.113.319 2.109 1.006 2.805l.21.2c.097.093.152.221.154.355.002.135-.052.264-.146.359l-2.83 2.83c-.098.098-.226.147-.354.147z" fill="#263238"/></g></g><g><g><path d="m11.455 14.363c-.4 0-.775-.156-1.059-.439l-.708-.698c-.095-.093-.148-.221-.148-.354s.053-.261.146-.355l2.83-2.83c.195-.194.51-.195.705-.002l.71.7c.588.588.588 1.542.003 2.129l-1.422 1.412c-.283.281-.658.437-1.057.437zm-.705-1.495.352.347c.19.192.517.191.705.002l1.421-1.411c.191-.192.192-.519-.001-.711l-.354-.349z" fill="#263238"/></g></g><g><g><path d="m6.505 8.416c-.128 0-.256-.049-.354-.146-.195-.195-.195-.512 0-.707l1.414-1.414c.195-.195.512-.195.707 0s.195.512 0 .707l-1.414 1.414c-.097.097-.225.146-.353.146z" fill="#263238"/></g></g><g><g><path d="m10.041 10.537c-.128 0-.256-.049-.354-.146-1.791-1.791-2.238-3.699-2.255-3.779-.062-.269.107-.535.376-.597.271-.061.536.107.599.375.004.017.411 1.717 1.988 3.293.195.195.195.512 0 .707-.098.098-.226.147-.354.147z" fill="#263238"/></g></g><g><g><path d="m12.541 2.488c-.226 0-.43-.153-.485-.381-.066-.269.099-.539.366-.605 1.996-.488 4.133-.559 6.163-.208.272.047.455.306.408.578-.048.272-.312.451-.578.407-1.897-.329-3.893-.262-5.755.194-.04.011-.08.015-.119.015z" fill="#263238"/></g></g><g><g><path d="m1.575 18.072c-.253 0-.471-.192-.496-.45-.053-.517-.079-1.038-.079-1.549 0-1.211.145-2.416.43-3.579.065-.267.333-.431.604-.367.268.066.433.336.366.605-.265 1.086-.4 2.21-.4 3.341 0 .478.024.965.073 1.449.028.275-.172.52-.447.548-.017.001-.033.002-.051.002z" fill="#263238"/></g></g><g><g><path d="m16 31.073c-.863 0-1.733-.075-2.585-.222-.272-.047-.455-.306-.408-.578.048-.272.311-.453.578-.407 1.592.275 3.238.275 4.83 0 .268-.045.53.135.578.407.047.272-.136.531-.408.578-.852.148-1.722.222-2.585.222z" fill="#263238"/></g></g><g><g><path d="m30.286 19.072c-.029 0-.058-.002-.087-.007-.272-.047-.454-.307-.406-.579.138-.788.207-1.6.207-2.413s-.069-1.625-.207-2.414c-.048-.272.134-.531.406-.579.266-.046.531.133.578.407.148.846.223 1.716.223 2.586s-.075 1.74-.223 2.585c-.042.243-.253.414-.491.414z" fill="#263238"/></g></g></g></g></svg>